<mxfile host="app.diagrams.net" modified="2024-01-15T13:42:05.615Z" agent="Mozilla/5.0 (Windows NT 10.0; Win64; x64) AppleWebKit/537.36 (KHTML, like Gecko) Chrome/120.0.0.0 Safari/537.36" etag="SnNRwT_b4pVN34noV6fB" version="22.1.18" type="github">
  <diagram name="페이지-1" id="W7oE5pZKumegX0ayrvY9">
    <mxGraphModel dx="2234" dy="1138" grid="0" gridSize="10" guides="1" tooltips="1" connect="1" arrows="1" fold="1" page="0" pageScale="1" pageWidth="827" pageHeight="1169" math="0" shadow="0">
      <root>
        <mxCell id="0" />
        <mxCell id="1" parent="0" />
        <mxCell id="ZWE6TdigHL6hVymN-tuY-2" value="" style="rounded=0;whiteSpace=wrap;html=1;fontSize=16;" parent="1" vertex="1">
          <mxGeometry x="-553" y="-91" width="1775" height="763" as="geometry" />
        </mxCell>
        <mxCell id="ZWE6TdigHL6hVymN-tuY-3" value="Samsung Cloud Platform - IAM / MB Architecture" style="text;html=1;strokeColor=#666666;fillColor=#f5f5f5;align=center;verticalAlign=middle;whiteSpace=wrap;rounded=0;fontSize=20;fontStyle=1;fontColor=#333333;" parent="1" vertex="1">
          <mxGeometry x="-707" y="-226" width="485" height="59" as="geometry" />
        </mxCell>
        <mxCell id="ZWE6TdigHL6hVymN-tuY-5" value="" style="rounded=1;whiteSpace=wrap;html=1;fontSize=16;" parent="1" vertex="1">
          <mxGeometry x="-536" y="-67" width="733" height="725" as="geometry" />
        </mxCell>
        <mxCell id="ZWE6TdigHL6hVymN-tuY-6" value="" style="rounded=1;whiteSpace=wrap;html=1;fontSize=16;" parent="1" vertex="1">
          <mxGeometry x="217" y="-66" width="990" height="720" as="geometry" />
        </mxCell>
        <mxCell id="ZWE6TdigHL6hVymN-tuY-7" value="SCP-IAM(SingleID) PB(Provisioning Block)" style="rounded=0;whiteSpace=wrap;html=1;fontSize=16;fillColor=#fff2cc;strokeColor=#d6b656;" parent="1" vertex="1">
          <mxGeometry x="-443" y="-79" width="512" height="26" as="geometry" />
        </mxCell>
        <mxCell id="ZWE6TdigHL6hVymN-tuY-8" value="SCP Platform MB (Management Block)" style="rounded=0;whiteSpace=wrap;html=1;fontSize=16;fillColor=#fff2cc;strokeColor=#d6b656;" parent="1" vertex="1">
          <mxGeometry x="499" y="-77" width="512" height="26" as="geometry" />
        </mxCell>
        <mxCell id="ZWE6TdigHL6hVymN-tuY-9" value="SCP SingleID Services&lt;br&gt;(SingleID Console/Open API)&lt;br&gt;&lt;br&gt;AM : WSO2 / IM : Syncope" style="shape=cube;whiteSpace=wrap;html=1;boundedLbl=1;backgroundOutline=1;darkOpacity=0.05;darkOpacity2=0.1;fontSize=16;fillColor=#e1d5e7;strokeColor=#9673a6;" parent="1" vertex="1">
          <mxGeometry x="-314.5" y="241.5" width="253" height="111" as="geometry" />
        </mxCell>
        <mxCell id="ZWE6TdigHL6hVymN-tuY-10" value="" style="endArrow=classic;html=1;rounded=0;fontSize=12;startSize=8;endSize=8;curved=1;exitX=0;exitY=0;exitDx=136.5;exitDy=111;exitPerimeter=0;entryX=0.5;entryY=0;entryDx=0;entryDy=0;" parent="1" source="ZWE6TdigHL6hVymN-tuY-9" target="ZWE6TdigHL6hVymN-tuY-11" edge="1">
          <mxGeometry width="50" height="50" relative="1" as="geometry">
            <mxPoint x="-225.17" y="509" as="sourcePoint" />
            <mxPoint x="-164" y="424" as="targetPoint" />
          </mxGeometry>
        </mxCell>
        <mxCell id="ZWE6TdigHL6hVymN-tuY-11" value="ElasticSearch, Kafka, Database" style="rounded=1;whiteSpace=wrap;html=1;fontSize=16;" parent="1" vertex="1">
          <mxGeometry x="-326" y="435" width="298" height="29" as="geometry" />
        </mxCell>
        <mxCell id="ZWE6TdigHL6hVymN-tuY-12" value="SCP SingleID Product UI&lt;br&gt;(cmp-portal-user-singleid)" style="rounded=1;whiteSpace=wrap;html=1;fontSize=16;fillColor=#d5e8d4;strokeColor=#82b366;" parent="1" vertex="1">
          <mxGeometry x="387" y="94" width="211" height="81" as="geometry" />
        </mxCell>
        <mxCell id="ZWE6TdigHL6hVymN-tuY-13" value="SCP SingleID Product API&lt;br&gt;(cmp-singleid-api)" style="rounded=1;whiteSpace=wrap;html=1;fontSize=16;fillColor=#d5e8d4;strokeColor=#82b366;" parent="1" vertex="1">
          <mxGeometry x="389" y="223" width="211" height="81" as="geometry" />
        </mxCell>
        <mxCell id="ZWE6TdigHL6hVymN-tuY-14" value="Event Bus" style="rounded=1;whiteSpace=wrap;html=1;fontSize=16;" parent="1" vertex="1">
          <mxGeometry x="760" y="223" width="211" height="81" as="geometry" />
        </mxCell>
        <mxCell id="ZWE6TdigHL6hVymN-tuY-15" value="" style="endArrow=classic;html=1;rounded=0;fontSize=12;startSize=8;endSize=8;curved=1;exitX=1;exitY=0.5;exitDx=0;exitDy=0;entryX=0;entryY=0.5;entryDx=0;entryDy=0;" parent="1" source="ZWE6TdigHL6hVymN-tuY-13" target="ZWE6TdigHL6hVymN-tuY-14" edge="1">
          <mxGeometry relative="1" as="geometry">
            <mxPoint x="615" y="228" as="sourcePoint" />
            <mxPoint x="715" y="228" as="targetPoint" />
          </mxGeometry>
        </mxCell>
        <mxCell id="ZWE6TdigHL6hVymN-tuY-16" value="Audit, Metering" style="edgeLabel;resizable=0;html=1;align=center;verticalAlign=middle;fontSize=16;" parent="ZWE6TdigHL6hVymN-tuY-15" connectable="0" vertex="1">
          <mxGeometry relative="1" as="geometry" />
        </mxCell>
        <mxCell id="ZWE6TdigHL6hVymN-tuY-17" value="SDS System" style="swimlane;whiteSpace=wrap;html=1;fontSize=16;" parent="1" vertex="1">
          <mxGeometry x="521" y="708" width="674" height="140" as="geometry" />
        </mxCell>
        <mxCell id="ZWE6TdigHL6hVymN-tuY-20" value="" style="edgeStyle=none;curved=1;rounded=0;orthogonalLoop=1;jettySize=auto;html=1;fontSize=12;startSize=8;endSize=8;" parent="ZWE6TdigHL6hVymN-tuY-17" source="ZWE6TdigHL6hVymN-tuY-18" target="ZWE6TdigHL6hVymN-tuY-19" edge="1">
          <mxGeometry relative="1" as="geometry" />
        </mxCell>
        <mxCell id="ZWE6TdigHL6hVymN-tuY-18" value="CCBS&lt;br&gt;(Billing)" style="rounded=1;whiteSpace=wrap;html=1;fontSize=16;fillColor=#dae8fc;strokeColor=#6c8ebf;" parent="ZWE6TdigHL6hVymN-tuY-17" vertex="1">
          <mxGeometry x="73" y="40" width="211" height="81" as="geometry" />
        </mxCell>
        <mxCell id="ZWE6TdigHL6hVymN-tuY-19" value="SAP" style="rounded=1;whiteSpace=wrap;html=1;fontSize=16;fillColor=#dae8fc;strokeColor=#6c8ebf;" parent="ZWE6TdigHL6hVymN-tuY-17" vertex="1">
          <mxGeometry x="393" y="40" width="211" height="81" as="geometry" />
        </mxCell>
        <mxCell id="ZWE6TdigHL6hVymN-tuY-21" value="SCP&lt;br&gt;PostgreSQL" style="shape=cylinder3;whiteSpace=wrap;html=1;boundedLbl=1;backgroundOutline=1;size=15;fontSize=16;" parent="1" vertex="1">
          <mxGeometry x="387" y="480" width="112" height="111" as="geometry" />
        </mxCell>
        <mxCell id="ZWE6TdigHL6hVymN-tuY-24" value="" style="endArrow=classic;html=1;rounded=0;fontSize=12;startSize=8;endSize=8;curved=1;exitX=0.25;exitY=1;exitDx=0;exitDy=0;entryX=0.5;entryY=0;entryDx=0;entryDy=0;entryPerimeter=0;" parent="1" source="ZWE6TdigHL6hVymN-tuY-13" target="ZWE6TdigHL6hVymN-tuY-21" edge="1">
          <mxGeometry relative="1" as="geometry">
            <mxPoint x="673" y="411" as="sourcePoint" />
            <mxPoint x="773" y="411" as="targetPoint" />
          </mxGeometry>
        </mxCell>
        <mxCell id="ZWE6TdigHL6hVymN-tuY-25" value="Tenant / &lt;br&gt;Resource Info" style="edgeLabel;resizable=0;html=1;align=center;verticalAlign=middle;fontSize=16;" parent="ZWE6TdigHL6hVymN-tuY-24" connectable="0" vertex="1">
          <mxGeometry relative="1" as="geometry" />
        </mxCell>
        <mxCell id="ZWE6TdigHL6hVymN-tuY-28" value="Log &amp;amp; Audit" style="rounded=1;whiteSpace=wrap;html=1;fontSize=16;" parent="1" vertex="1">
          <mxGeometry x="595" y="493" width="211" height="81" as="geometry" />
        </mxCell>
        <mxCell id="ZWE6TdigHL6hVymN-tuY-29" value="IOPS&lt;br&gt;(Metering)" style="rounded=1;whiteSpace=wrap;html=1;fontSize=16;" parent="1" vertex="1">
          <mxGeometry x="913" y="493" width="211" height="81" as="geometry" />
        </mxCell>
        <mxCell id="ZWE6TdigHL6hVymN-tuY-30" value="" style="endArrow=classic;html=1;rounded=0;fontSize=12;startSize=8;endSize=8;curved=1;entryX=0.5;entryY=1;entryDx=0;entryDy=0;exitX=0.5;exitY=0;exitDx=0;exitDy=0;" parent="1" source="ZWE6TdigHL6hVymN-tuY-18" target="ZWE6TdigHL6hVymN-tuY-28" edge="1">
          <mxGeometry width="50" height="50" relative="1" as="geometry">
            <mxPoint x="668" y="436" as="sourcePoint" />
            <mxPoint x="718" y="386" as="targetPoint" />
          </mxGeometry>
        </mxCell>
        <mxCell id="ZWE6TdigHL6hVymN-tuY-31" value="" style="endArrow=none;html=1;rounded=0;fontSize=12;startSize=8;endSize=8;curved=1;entryX=0.75;entryY=1;entryDx=0;entryDy=0;" parent="1" target="ZWE6TdigHL6hVymN-tuY-13" edge="1">
          <mxGeometry width="50" height="50" relative="1" as="geometry">
            <mxPoint x="552" y="790" as="sourcePoint" />
            <mxPoint x="718" y="386" as="targetPoint" />
          </mxGeometry>
        </mxCell>
        <mxCell id="ZWE6TdigHL6hVymN-tuY-32" value="" style="endArrow=classic;html=1;rounded=0;fontSize=12;startSize=8;endSize=8;curved=1;entryX=0;entryY=0.5;entryDx=0;entryDy=0;" parent="1" target="ZWE6TdigHL6hVymN-tuY-18" edge="1">
          <mxGeometry width="50" height="50" relative="1" as="geometry">
            <mxPoint x="552" y="789" as="sourcePoint" />
            <mxPoint x="729" y="-479" as="targetPoint" />
          </mxGeometry>
        </mxCell>
        <mxCell id="ZWE6TdigHL6hVymN-tuY-33" value="Billing &lt;br&gt;Request" style="edgeLabel;resizable=0;html=1;align=center;verticalAlign=middle;fontSize=16;" parent="1" connectable="0" vertex="1">
          <mxGeometry x="556.9973516019196" y="392.00110555034" as="geometry" />
        </mxCell>
        <mxCell id="ZWE6TdigHL6hVymN-tuY-35" value="" style="endArrow=classic;html=1;rounded=0;fontSize=12;startSize=8;endSize=8;curved=1;entryX=0.5;entryY=0;entryDx=0;entryDy=0;exitX=0.5;exitY=1;exitDx=0;exitDy=0;" parent="1" source="ZWE6TdigHL6hVymN-tuY-14" target="ZWE6TdigHL6hVymN-tuY-29" edge="1">
          <mxGeometry width="50" height="50" relative="1" as="geometry">
            <mxPoint x="656" y="457" as="sourcePoint" />
            <mxPoint x="706" y="407" as="targetPoint" />
          </mxGeometry>
        </mxCell>
        <mxCell id="ZWE6TdigHL6hVymN-tuY-36" value="" style="endArrow=classic;html=1;rounded=0;fontSize=12;startSize=8;endSize=8;curved=1;entryX=0.5;entryY=0;entryDx=0;entryDy=0;" parent="1" target="ZWE6TdigHL6hVymN-tuY-28" edge="1">
          <mxGeometry width="50" height="50" relative="1" as="geometry">
            <mxPoint x="865" y="305" as="sourcePoint" />
            <mxPoint x="1029" y="503" as="targetPoint" />
          </mxGeometry>
        </mxCell>
        <mxCell id="ZWE6TdigHL6hVymN-tuY-37" value="SCP APIM" style="rounded=1;whiteSpace=wrap;html=1;fontSize=16;" parent="1" vertex="1">
          <mxGeometry x="150" y="178" width="110" height="45" as="geometry" />
        </mxCell>
        <mxCell id="ZWE6TdigHL6hVymN-tuY-38" value="" style="endArrow=classic;html=1;rounded=0;fontSize=12;startSize=8;endSize=8;curved=1;entryX=1.005;entryY=0.797;entryDx=0;entryDy=0;entryPerimeter=0;exitX=0;exitY=0.75;exitDx=0;exitDy=0;" parent="1" source="ZWE6TdigHL6hVymN-tuY-13" target="ZWE6TdigHL6hVymN-tuY-9" edge="1">
          <mxGeometry relative="1" as="geometry">
            <mxPoint x="81" y="432" as="sourcePoint" />
            <mxPoint x="181" y="432" as="targetPoint" />
            <Array as="points">
              <mxPoint x="336" y="340" />
            </Array>
          </mxGeometry>
        </mxCell>
        <mxCell id="ZWE6TdigHL6hVymN-tuY-39" value="&amp;lt;REST API&amp;gt;&lt;br&gt;Tenant Management" style="edgeLabel;resizable=0;html=1;align=center;verticalAlign=middle;fontSize=16;" parent="ZWE6TdigHL6hVymN-tuY-38" connectable="0" vertex="1">
          <mxGeometry relative="1" as="geometry" />
        </mxCell>
        <mxCell id="ZWE6TdigHL6hVymN-tuY-40" value="" style="endArrow=classic;html=1;rounded=0;fontSize=12;startSize=8;endSize=8;curved=1;entryX=0.998;entryY=0.452;entryDx=0;entryDy=0;entryPerimeter=0;exitX=0;exitY=0.5;exitDx=0;exitDy=0;" parent="1" source="ZWE6TdigHL6hVymN-tuY-37" target="ZWE6TdigHL6hVymN-tuY-9" edge="1">
          <mxGeometry relative="1" as="geometry">
            <mxPoint x="81" y="432" as="sourcePoint" />
            <mxPoint x="181" y="432" as="targetPoint" />
            <Array as="points">
              <mxPoint x="76" y="302" />
            </Array>
          </mxGeometry>
        </mxCell>
        <mxCell id="ZWE6TdigHL6hVymN-tuY-41" value="&amp;lt;REST API&amp;gt;&lt;br&gt;Account Management" style="edgeLabel;resizable=0;html=1;align=center;verticalAlign=middle;fontSize=16;" parent="ZWE6TdigHL6hVymN-tuY-40" connectable="0" vertex="1">
          <mxGeometry relative="1" as="geometry">
            <mxPoint x="2" y="-28" as="offset" />
          </mxGeometry>
        </mxCell>
        <mxCell id="ZWE6TdigHL6hVymN-tuY-42" value="POD" style="ellipse;whiteSpace=wrap;html=1;aspect=fixed;fontSize=16;" parent="1" vertex="1">
          <mxGeometry x="-326" y="229" width="57" height="57" as="geometry" />
        </mxCell>
        <mxCell id="ZWE6TdigHL6hVymN-tuY-43" value="POD" style="ellipse;whiteSpace=wrap;html=1;aspect=fixed;fontSize=16;" parent="1" vertex="1">
          <mxGeometry x="358" y="59" width="57" height="57" as="geometry" />
        </mxCell>
        <mxCell id="ZWE6TdigHL6hVymN-tuY-44" value="POD" style="ellipse;whiteSpace=wrap;html=1;aspect=fixed;fontSize=16;" parent="1" vertex="1">
          <mxGeometry x="358" y="192" width="57" height="57" as="geometry" />
        </mxCell>
        <mxCell id="ZWE6TdigHL6hVymN-tuY-45" value="" style="endArrow=classic;html=1;rounded=0;fontSize=12;startSize=8;endSize=8;curved=1;entryX=0;entryY=0.5;entryDx=0;entryDy=0;exitX=1;exitY=0.5;exitDx=0;exitDy=0;" parent="1" source="ZWE6TdigHL6hVymN-tuY-37" target="ZWE6TdigHL6hVymN-tuY-13" edge="1">
          <mxGeometry relative="1" as="geometry">
            <mxPoint x="81" y="432" as="sourcePoint" />
            <mxPoint x="181" y="432" as="targetPoint" />
            <Array as="points">
              <mxPoint x="275" y="278" />
            </Array>
          </mxGeometry>
        </mxCell>
        <mxCell id="ZWE6TdigHL6hVymN-tuY-46" value="Product Order /&amp;nbsp;&lt;br&gt;Cancel" style="edgeLabel;resizable=0;html=1;align=center;verticalAlign=middle;fontSize=16;" parent="ZWE6TdigHL6hVymN-tuY-45" connectable="0" vertex="1">
          <mxGeometry relative="1" as="geometry">
            <mxPoint x="-1" y="-20" as="offset" />
          </mxGeometry>
        </mxCell>
        <mxCell id="ZWE6TdigHL6hVymN-tuY-47" value="" style="endArrow=classic;html=1;rounded=0;fontSize=12;startSize=8;endSize=8;curved=1;entryX=1;entryY=0.5;entryDx=0;entryDy=0;exitX=0;exitY=0.5;exitDx=0;exitDy=0;" parent="1" source="ZWE6TdigHL6hVymN-tuY-12" target="ZWE6TdigHL6hVymN-tuY-37" edge="1">
          <mxGeometry width="50" height="50" relative="1" as="geometry">
            <mxPoint x="106" y="457" as="sourcePoint" />
            <mxPoint x="156" y="407" as="targetPoint" />
          </mxGeometry>
        </mxCell>
        <mxCell id="ZWE6TdigHL6hVymN-tuY-48" value="Legend" style="swimlane;whiteSpace=wrap;html=1;fontSize=16;" parent="1" vertex="1">
          <mxGeometry x="-553" y="708" width="1021" height="140" as="geometry" />
        </mxCell>
        <mxCell id="ZWE6TdigHL6hVymN-tuY-50" value="SCP SingldID Service" style="rounded=1;whiteSpace=wrap;html=1;fontSize=16;fillColor=#e1d5e7;strokeColor=#9673a6;" parent="ZWE6TdigHL6hVymN-tuY-48" vertex="1">
          <mxGeometry x="63" y="40" width="211" height="81" as="geometry" />
        </mxCell>
        <mxCell id="ZWE6TdigHL6hVymN-tuY-51" value="SCP SingleID Product" style="rounded=1;whiteSpace=wrap;html=1;fontSize=16;fillColor=#d5e8d4;strokeColor=#82b366;" parent="ZWE6TdigHL6hVymN-tuY-48" vertex="1">
          <mxGeometry x="296" y="40" width="211" height="81" as="geometry" />
        </mxCell>
        <mxCell id="ZWE6TdigHL6hVymN-tuY-53" value="SCP Platform Service" style="rounded=1;whiteSpace=wrap;html=1;fontSize=16;" parent="ZWE6TdigHL6hVymN-tuY-48" vertex="1">
          <mxGeometry x="529" y="40" width="211" height="81" as="geometry" />
        </mxCell>
        <mxCell id="ZWE6TdigHL6hVymN-tuY-54" value="SDS System" style="rounded=1;whiteSpace=wrap;html=1;fontSize=16;fillColor=#dae8fc;strokeColor=#6c8ebf;" parent="ZWE6TdigHL6hVymN-tuY-48" vertex="1">
          <mxGeometry x="766" y="40" width="211" height="81" as="geometry" />
        </mxCell>
        <mxCell id="ZWE6TdigHL6hVymN-tuY-55" value="SingleID SaaS Admin" style="shape=umlActor;verticalLabelPosition=bottom;verticalAlign=top;html=1;outlineConnect=0;fontSize=16;" parent="1" vertex="1">
          <mxGeometry x="-680" y="102" width="40" height="73" as="geometry" />
        </mxCell>
        <mxCell id="ZWE6TdigHL6hVymN-tuY-59" value="" style="edgeStyle=none;curved=1;rounded=0;orthogonalLoop=1;jettySize=auto;html=1;fontSize=12;startSize=8;endSize=8;entryX=0.053;entryY=0.667;entryDx=0;entryDy=0;fillColor=#f8cecc;strokeColor=#b85450;entryPerimeter=0;" parent="1" source="ZWE6TdigHL6hVymN-tuY-56" target="ZWE6TdigHL6hVymN-tuY-42" edge="1">
          <mxGeometry relative="1" as="geometry" />
        </mxCell>
        <mxCell id="ZWE6TdigHL6hVymN-tuY-56" value="PC User" style="shape=umlActor;verticalLabelPosition=bottom;verticalAlign=top;html=1;outlineConnect=0;fontSize=16;" parent="1" vertex="1">
          <mxGeometry x="-680" y="231" width="40" height="73" as="geometry" />
        </mxCell>
        <mxCell id="ZWE6TdigHL6hVymN-tuY-57" value="Mobile User" style="shape=umlActor;verticalLabelPosition=bottom;verticalAlign=top;html=1;outlineConnect=0;fontSize=16;" parent="1" vertex="1">
          <mxGeometry x="-680" y="355.5" width="40" height="73" as="geometry" />
        </mxCell>
        <mxCell id="ZWE6TdigHL6hVymN-tuY-60" value="" style="endArrow=none;html=1;rounded=0;fontSize=12;startSize=8;endSize=8;curved=1;fillColor=#f8cecc;strokeColor=#b85450;" parent="1" source="ZWE6TdigHL6hVymN-tuY-57" edge="1">
          <mxGeometry width="50" height="50" relative="1" as="geometry">
            <mxPoint x="-83" y="533" as="sourcePoint" />
            <mxPoint x="-564" y="392" as="targetPoint" />
          </mxGeometry>
        </mxCell>
        <mxCell id="ZWE6TdigHL6hVymN-tuY-61" value="" style="endArrow=none;html=1;rounded=0;fontSize=12;startSize=8;endSize=8;curved=1;fillColor=#f8cecc;strokeColor=#b85450;" parent="1" edge="1">
          <mxGeometry width="50" height="50" relative="1" as="geometry">
            <mxPoint x="-564" y="391" as="sourcePoint" />
            <mxPoint x="-564" y="268" as="targetPoint" />
          </mxGeometry>
        </mxCell>
        <mxCell id="ZWE6TdigHL6hVymN-tuY-62" value="SingleID Service Use" style="edgeLabel;resizable=0;html=1;align=center;verticalAlign=middle;fontSize=16;" parent="1" connectable="0" vertex="1">
          <mxGeometry x="-448.99969652265236" y="267.502636510833" as="geometry" />
        </mxCell>
        <mxCell id="ZWE6TdigHL6hVymN-tuY-63" value="" style="endArrow=classic;html=1;rounded=0;fontSize=12;startSize=8;endSize=8;curved=1;entryX=0.275;entryY=0.023;entryDx=0;entryDy=0;entryPerimeter=0;fillColor=#f8cecc;strokeColor=#b85450;" parent="1" target="ZWE6TdigHL6hVymN-tuY-9" edge="1">
          <mxGeometry width="50" height="50" relative="1" as="geometry">
            <mxPoint x="-247" y="137" as="sourcePoint" />
            <mxPoint x="-298" y="109.5" as="targetPoint" />
          </mxGeometry>
        </mxCell>
        <mxCell id="ZWE6TdigHL6hVymN-tuY-64" value="" style="endArrow=none;html=1;rounded=0;fontSize=12;startSize=8;endSize=8;curved=1;fillColor=#f8cecc;strokeColor=#b85450;" parent="1" edge="1">
          <mxGeometry width="50" height="50" relative="1" as="geometry">
            <mxPoint x="-639" y="137.52433090024329" as="sourcePoint" />
            <mxPoint x="-248" y="138" as="targetPoint" />
          </mxGeometry>
        </mxCell>
        <mxCell id="ZWE6TdigHL6hVymN-tuY-65" value="SingleID SSO Configuration" style="edgeLabel;resizable=0;html=1;align=center;verticalAlign=middle;fontSize=16;" parent="1" connectable="0" vertex="1">
          <mxGeometry x="-448.99969652265236" y="134.50263651083299" as="geometry" />
        </mxCell>
        <mxCell id="ZWE6TdigHL6hVymN-tuY-66" value="Tenant Admin" style="shape=umlActor;verticalLabelPosition=bottom;verticalAlign=top;html=1;outlineConnect=0;fontSize=16;" parent="1" vertex="1">
          <mxGeometry x="184" y="-204" width="40" height="73" as="geometry" />
        </mxCell>
        <mxCell id="ZWE6TdigHL6hVymN-tuY-67" value="" style="endArrow=classic;html=1;rounded=0;fontSize=12;startSize=8;endSize=8;curved=1;entryX=0.5;entryY=0;entryDx=0;entryDy=0;fillColor=#f8cecc;strokeColor=#b85450;" parent="1" source="ZWE6TdigHL6hVymN-tuY-66" target="ZWE6TdigHL6hVymN-tuY-37" edge="1">
          <mxGeometry relative="1" as="geometry">
            <mxPoint x="158" y="212" as="sourcePoint" />
            <mxPoint x="258" y="212" as="targetPoint" />
          </mxGeometry>
        </mxCell>
        <mxCell id="ZWE6TdigHL6hVymN-tuY-68" value="Open API" style="edgeLabel;resizable=0;html=1;align=center;verticalAlign=middle;fontSize=16;" parent="ZWE6TdigHL6hVymN-tuY-67" connectable="0" vertex="1">
          <mxGeometry relative="1" as="geometry" />
        </mxCell>
        <mxCell id="ZWE6TdigHL6hVymN-tuY-69" value="" style="endArrow=none;html=1;rounded=0;fontSize=12;startSize=8;endSize=8;curved=1;exitX=0.674;exitY=0.023;exitDx=0;exitDy=0;exitPerimeter=0;fillColor=#f8cecc;strokeColor=#b85450;" parent="1" source="ZWE6TdigHL6hVymN-tuY-9" edge="1">
          <mxGeometry width="50" height="50" relative="1" as="geometry">
            <mxPoint x="183" y="237" as="sourcePoint" />
            <mxPoint x="-146" y="48" as="targetPoint" />
          </mxGeometry>
        </mxCell>
        <mxCell id="ZWE6TdigHL6hVymN-tuY-72" value="" style="endArrow=none;html=1;rounded=0;fontSize=12;startSize=8;endSize=8;curved=1;fillColor=#f8cecc;strokeColor=#b85450;" parent="1" edge="1">
          <mxGeometry width="50" height="50" relative="1" as="geometry">
            <mxPoint x="207" y="-52" as="sourcePoint" />
            <mxPoint x="494" y="-52" as="targetPoint" />
          </mxGeometry>
        </mxCell>
        <mxCell id="ZWE6TdigHL6hVymN-tuY-73" value="" style="endArrow=classic;html=1;rounded=0;fontSize=12;startSize=8;endSize=8;curved=1;entryX=0.5;entryY=0;entryDx=0;entryDy=0;fillColor=#f8cecc;strokeColor=#b85450;" parent="1" target="ZWE6TdigHL6hVymN-tuY-12" edge="1">
          <mxGeometry relative="1" as="geometry">
            <mxPoint x="494" y="-53" as="sourcePoint" />
            <mxPoint x="392" y="187" as="targetPoint" />
          </mxGeometry>
        </mxCell>
        <mxCell id="ZWE6TdigHL6hVymN-tuY-74" value="SCP Product Order" style="edgeLabel;resizable=0;html=1;align=center;verticalAlign=middle;fontSize=16;" parent="ZWE6TdigHL6hVymN-tuY-73" connectable="0" vertex="1">
          <mxGeometry relative="1" as="geometry" />
        </mxCell>
        <mxCell id="ZWE6TdigHL6hVymN-tuY-75" value="" style="endArrow=classic;html=1;rounded=0;fontSize=12;startSize=8;endSize=8;curved=1;entryX=0.5;entryY=0;entryDx=0;entryDy=0;fillColor=#f8cecc;strokeColor=#b85450;" parent="1" edge="1">
          <mxGeometry relative="1" as="geometry">
            <mxPoint x="-199" y="-150" as="sourcePoint" />
            <mxPoint x="-197" y="246" as="targetPoint" />
          </mxGeometry>
        </mxCell>
        <mxCell id="ZWE6TdigHL6hVymN-tuY-76" value="SingleID Configuration" style="edgeLabel;resizable=0;html=1;align=center;verticalAlign=middle;fontSize=16;" parent="ZWE6TdigHL6hVymN-tuY-75" connectable="0" vertex="1">
          <mxGeometry relative="1" as="geometry">
            <mxPoint x="180" y="-215" as="offset" />
          </mxGeometry>
        </mxCell>
        <mxCell id="ZWE6TdigHL6hVymN-tuY-77" value="" style="endArrow=none;html=1;rounded=0;fontSize=12;startSize=8;endSize=8;curved=1;fillColor=#f8cecc;strokeColor=#b85450;" parent="1" edge="1">
          <mxGeometry width="50" height="50" relative="1" as="geometry">
            <mxPoint x="-199" y="-151" as="sourcePoint" />
            <mxPoint x="174" y="-151" as="targetPoint" />
          </mxGeometry>
        </mxCell>
        <mxCell id="ZWE6TdigHL6hVymN-tuY-78" value="SCP Platform Services&lt;br&gt;(SCP Console)" style="shape=cube;whiteSpace=wrap;html=1;boundedLbl=1;backgroundOutline=1;darkOpacity=0.05;darkOpacity2=0.1;fontSize=16;" parent="1" vertex="1">
          <mxGeometry x="738" y="75" width="253" height="111" as="geometry" />
        </mxCell>
        <mxCell id="ZWE6TdigHL6hVymN-tuY-79" value="" style="endArrow=classic;html=1;rounded=0;fontSize=12;startSize=8;endSize=8;curved=1;entryX=0.5;entryY=0;entryDx=0;entryDy=0;exitX=0.504;exitY=1.003;exitDx=0;exitDy=0;exitPerimeter=0;" parent="1" source="ZWE6TdigHL6hVymN-tuY-78" target="ZWE6TdigHL6hVymN-tuY-14" edge="1">
          <mxGeometry width="50" height="50" relative="1" as="geometry">
            <mxPoint x="766" y="244" as="sourcePoint" />
            <mxPoint x="816" y="194" as="targetPoint" />
          </mxGeometry>
        </mxCell>
        <mxCell id="ZWE6TdigHL6hVymN-tuY-80" value="" style="endArrow=none;html=1;rounded=0;fontSize=12;startSize=8;endSize=8;curved=1;fillColor=#f8cecc;strokeColor=#b85450;" parent="1" edge="1">
          <mxGeometry width="50" height="50" relative="1" as="geometry">
            <mxPoint x="-146" y="49" as="sourcePoint" />
            <mxPoint x="791" y="49" as="targetPoint" />
          </mxGeometry>
        </mxCell>
        <mxCell id="ZWE6TdigHL6hVymN-tuY-81" value="" style="endArrow=classic;html=1;rounded=0;fontSize=12;startSize=8;endSize=8;curved=1;entryX=0.198;entryY=-0.022;entryDx=0;entryDy=0;entryPerimeter=0;fillColor=#f8cecc;strokeColor=#b85450;" parent="1" edge="1">
          <mxGeometry width="50" height="50" relative="1" as="geometry">
            <mxPoint x="791" y="51" as="sourcePoint" />
            <mxPoint x="791.094" y="72.55799999999999" as="targetPoint" />
          </mxGeometry>
        </mxCell>
        <mxCell id="ZWE6TdigHL6hVymN-tuY-82" value="SCP IDP SSO" style="edgeLabel;resizable=0;html=1;align=center;verticalAlign=middle;fontSize=16;" parent="1" connectable="0" vertex="1">
          <mxGeometry x="6.998431342117982" y="47.99860574035672" as="geometry" />
        </mxCell>
        <mxCell id="ZWE6TdigHL6hVymN-tuY-83" value="" style="endArrow=none;html=1;rounded=0;fontSize=12;startSize=8;endSize=8;curved=1;fillColor=#f8cecc;strokeColor=#b85450;" parent="1" edge="1">
          <mxGeometry width="50" height="50" relative="1" as="geometry">
            <mxPoint x="232" y="-154" as="sourcePoint" />
            <mxPoint x="872" y="-152" as="targetPoint" />
          </mxGeometry>
        </mxCell>
        <mxCell id="ZWE6TdigHL6hVymN-tuY-84" value="" style="endArrow=classic;html=1;rounded=0;fontSize=12;startSize=8;endSize=8;curved=1;entryX=0.53;entryY=0.016;entryDx=0;entryDy=0;entryPerimeter=0;fillColor=#f8cecc;strokeColor=#b85450;" parent="1" target="ZWE6TdigHL6hVymN-tuY-78" edge="1">
          <mxGeometry relative="1" as="geometry">
            <mxPoint x="872" y="-150" as="sourcePoint" />
            <mxPoint x="870" y="42" as="targetPoint" />
          </mxGeometry>
        </mxCell>
        <mxCell id="ZWE6TdigHL6hVymN-tuY-85" value="SCP Console Login" style="edgeLabel;resizable=0;html=1;align=center;verticalAlign=middle;fontSize=16;" parent="ZWE6TdigHL6hVymN-tuY-84" connectable="0" vertex="1">
          <mxGeometry relative="1" as="geometry">
            <mxPoint x="-329" y="-131" as="offset" />
          </mxGeometry>
        </mxCell>
      </root>
    </mxGraphModel>
  </diagram>
</mxfile>
